<svg xmlns="http://www.w3.org/2000/svg" version="1.1" xmlns:xlink="http://www.w3.org/1999/xlink" xmlns:svgjs="http://svgjs.dev/svgjs" width="1000" height="1000" viewBox="0 0 1000 1000"><rect width="1000" height="1000" fill="#000000"></rect><g transform="matrix(0.7,0,0,0.7,149.57576458701038,410.79068916530207)"><svg viewBox="0 0 396 101" data-background-color="#ffffff" preserveAspectRatio="xMidYMid meet" height="255" width="1000" xmlns="http://www.w3.org/2000/svg" xmlns:xlink="http://www.w3.org/1999/xlink"><g id="tight-bounds" transform="matrix(1,0,0,1,0.2399961369249013,-0.023023001095282325)"><svg viewBox="0 0 395.52 101.04604600219055" height="101.04604600219055" width="395.52"><g><svg viewBox="0 0 395.52000000000004 101.04604600219056" height="101.04604600219055" width="395.52"><g><svg viewBox="0 0 395.52000000000004 101.04604600219056" height="101.04604600219056" width="395.52000000000004"><g id="textblocktransform"><svg viewBox="0 0 395.52000000000004 101.04604600219056" height="101.04604600219056" width="395.52000000000004" id="textblock"><g><svg viewBox="0 0 395.52000000000004 101.04604600219056" height="101.04604600219056" width="395.52000000000004"><g transform="matrix(1,0,0,1,0,0)"><svg width="395.52000000000004" viewBox="2.200000047683716 -35.650001525878906 182.58999633789062 46.650001525878906" height="101.04604600219056" data-palette-color="#000000"><path d="M13 0L2.2 0 2.2-35 13-35 13-21.6 17.1-21.6Q18.15-21.6 18.98-22.1 19.8-22.6 20.3-23.55 20.8-24.5 20.8-25.8L20.8-25.8 20.8-35 31.6-35 31.6-25.6Q31.6-22.55 30.13-19.98 28.65-17.4 26.2-15.7L26.2-15.7 29.2-9.35Q29.45-8.85 29.9-8.55 30.35-8.25 30.95-8.25L30.95-8.25 33.6-8.25 33.6 0 27.95 0Q24.75 0 22.85-1.13 20.95-2.25 19.95-4.2L19.95-4.2 15.65-13.2Q15.45-13.2 15.25-13.2 15.05-13.2 14.85-13.2L14.85-13.2 13-13.2 13 0ZM57.05 0L35.3 0 35.3-8.45 40.75-8.45 40.75-26.55 35.3-26.55 35.3-35 57.05-35 57.05-26.55 51.55-26.55 51.55-8.45 57.05-8.45 57.05 0ZM87.45 0.65L87.45 0.65Q84.25 0.65 81.42-0.68 78.6-2 76.85-4.55 75.1-7.1 75.1-10.75L75.1-10.75 75.1-24.3Q75.1-24.95 74.82-25.43 74.55-25.9 74.1-26.15 73.65-26.4 73.05-26.4L73.05-26.4Q72.45-26.4 71.97-26.15 71.5-25.9 71.22-25.43 70.95-24.95 70.95-24.3L70.95-24.3 70.95 0 60.65 0 60.65-24.2Q60.65-27.85 62.37-30.4 64.1-32.95 66.95-34.3 69.8-35.65 73.05-35.65L73.05-35.65Q76.3-35.65 79.1-34.3 81.9-32.95 83.65-30.4 85.4-27.85 85.4-24.2L85.4-24.2 85.4-10.65Q85.4-10 85.7-9.5 86-9 86.45-8.75 86.9-8.5 87.4-8.5L87.4-8.5Q87.95-8.5 88.45-8.75 88.95-9 89.25-9.5 89.55-10 89.55-10.65L89.55-10.65 89.55-35 99.8-35 99.8-10.75Q99.8-7.1 98.05-4.55 96.3-2 93.47-0.68 90.65 0.65 87.45 0.65ZM110.19 11L110.19 11Q106.89 11 104.82 9.65 102.74 8.3 101.77 6.15 100.79 4 100.79 1.65L100.79 1.65Q100.79-1.3 101.94-4.17 103.09-7.05 105.32-9.6 107.54-12.15 110.79-14.2L110.79-14.2 110.79-26.55 103.84-26.55 103.84-35 120.39-35 120.39-1.6Q120.39 2.65 119.27 5.45 118.14 8.25 115.89 9.63 113.64 11 110.19 11ZM109.74 2.2L109.74 2.2Q110.19 2.2 110.57 1.93 110.94 1.65 111.17 1.15 111.39 0.65 111.39-0.1L111.39-0.1 111.39-6.25Q110.14-5.15 109.39-4.08 108.64-3 108.34-1.98 108.04-0.95 108.04 0.1L108.04 0.1Q108.04 1.1 108.57 1.65 109.09 2.2 109.74 2.2ZM133.79 0L122.59 0 133.79-30.6Q134.74-33.1 136.92-34.38 139.09-35.65 141.84-35.65L141.84-35.65Q144.59-35.65 146.77-34.4 148.94-33.15 149.89-30.65L149.89-30.65 161.09 0 149.64 0 147.74-6.1 135.79-6.1 133.79 0ZM141.49-25.6L138.04-14.35 145.49-14.35 142.24-25.6Q142.19-25.75 142.09-25.83 141.99-25.9 141.84-25.9L141.84-25.9Q141.74-25.9 141.64-25.83 141.54-25.75 141.49-25.6L141.49-25.6ZM184.79 0L174.14 0Q170.59 0 167.94-1.5 165.29-3 163.84-5.48 162.39-7.95 162.39-10.95L162.39-10.95 162.39-35 173.19-35 173.19-10.85Q173.19-9.9 173.86-9.18 174.54-8.45 175.54-8.45L175.54-8.45 184.79-8.45 184.79 0Z" opacity="1" transform="matrix(1,0,0,1,0,0)" fill="#ffffff" class="undefined-text-0" data-fill-palette-color="primary" id="text-0"></path></svg></g></svg></g></svg></g></svg></g></svg></g><defs></defs></svg><rect width="395.52" height="101.04604600219055" fill="none" stroke="none" visibility="hidden"></rect></g></svg></g></svg>